# xmcd
#
# Track frame offsets:
#	150
#	18965
#	35057
#
# Disc length: 744 seconds
#
# Revision: 1
# Processed by: cddbd v1.5PL3 Copyright (c) Steve Scherf et al.
# Submitted via: audiograbber 1.83.01
#
DISCID=1c02e603
DTITLE=Peter Cetera - Restless Heart
DYEAR=1221
DGENRE=Pop
TTITLE0=Restless Hearth
TTITLE1=Dip Your Wings
TTITLE2=One Good Woman
EXTD=qtrweq
EXTT0=
EXTT1=
EXTT2=
PLAYORDER=
